<svg xmlns="http://www.w3.org/2000/svg" width="496.777" height="487.275" viewBox="0 0 496.777 487.275">
  <g id="design" transform="translate(-1007 -320)">
    <rect id="Rectangle_17" data-name="Rectangle 17" width="160" height="160" rx="30" transform="translate(1007 320)" fill="#2a2a2a"/>
    <rect id="Rectangle_22" data-name="Rectangle 22" width="160" height="160" rx="30" transform="translate(1007 640)" fill="#2a2a2a"/>
    <rect id="Rectangle_23" data-name="Rectangle 23" width="160" height="160" rx="30" transform="translate(1167 480)" fill="#2a2a2a"/>
    <rect id="Rectangle_27" data-name="Rectangle 27" width="160" height="160" rx="30" transform="translate(1327 320)" fill="#2a2a2a"/>
    <rect id="Rectangle_28" data-name="Rectangle 28" width="160" height="160" rx="30" transform="translate(1327 640)" fill="#2a2a2a"/>
    <rect id="Rectangle_21" data-name="Rectangle 21" width="160" height="160" rx="30" transform="translate(1007 480)" fill="#e14942"/>
    <rect id="Rectangle_24" data-name="Rectangle 24" width="160" height="160" rx="30" transform="translate(1167 320)" fill="#e14942"/>
    <rect id="Rectangle_25" data-name="Rectangle 25" width="160" height="160" rx="30" transform="translate(1167 640)" fill="#e14942"/>
    <rect id="Rectangle_26" data-name="Rectangle 26" width="160" height="160" rx="30" transform="translate(1327 480)" fill="#e14942"/>
    <circle id="Ellipse_2" data-name="Ellipse 2" cx="80" cy="80" r="80" transform="translate(1087 400)" fill="#363636"/>
    <circle id="Ellipse_3" data-name="Ellipse 3" cx="40" cy="40" r="40" transform="translate(1127 440)" fill="#e14942"/>
    <circle id="Ellipse_6" data-name="Ellipse 6" cx="45" cy="45" r="45" transform="translate(1042 675)" fill="#e14942"/>
    <circle id="Ellipse_5" data-name="Ellipse 5" cx="60" cy="60" r="60" transform="translate(1347 340)" fill="#e14942"/>
    <line id="Line_1" data-name="Line 1" x1="160" y2="160" transform="translate(1327 640)" fill="rgba(0,0,0,0)" stroke="#e14942" stroke-width="10"/>
    <path id="Rectangle_29" data-name="Rectangle 29" d="M14.012,0,33.554,20.237,19.359,33.761,0,13.714Z" transform="translate(1470.223 627.54)" fill="#fff"/>
    <rect id="Rectangle_32" data-name="Rectangle 32" width="6" height="5" transform="translate(1332.646 788.398) rotate(45)"/>
    <rect id="Rectangle_33" data-name="Rectangle 33" width="90" height="90" rx="40" transform="translate(1202 675)" fill="#363636"/>
    <path id="Rectangle_30" data-name="Rectangle 30" d="M8.034,0,22.057,12.161,13.908,22.475,0,10.364Z" transform="translate(1320.471 784.8)" fill="#fff"/>
    <path id="Rectangle_31" data-name="Rectangle 31" d="M4.217,0,8.7,5.333,4.468,9.284,0,3.962Z" transform="translate(1327.762 786.7)" fill="#fff"/>
  </g>
</svg>
